<?xml version="1.0" encoding="UTF-8" standalone="no"?>
<svg
   width="2500"
   height="2034"
   viewBox="0.499 48.118 511.002 415.763"
   version="1.1"
   id="svg4"
   sodipodi:docname="blender.svg"
   inkscape:version="1.1 (c4e8f9ed74, 2021-05-24)"
   xmlns:inkscape="http://www.inkscape.org/namespaces/inkscape"
   xmlns:sodipodi="http://sodipodi.sourceforge.net/DTD/sodipodi-0.dtd"
   xmlns="http://www.w3.org/2000/svg"
   xmlns:svg="http://www.w3.org/2000/svg">
  <defs
     id="defs8" />
  <sodipodi:namedview
     id="namedview6"
     pagecolor="#ffffff"
     bordercolor="#666666"
     borderopacity="1.0"
     inkscape:pageshadow="2"
     inkscape:pageopacity="0.0"
     inkscape:pagecheckerboard="0"
     showgrid="false"
     inkscape:zoom="0.32448378"
     inkscape:cx="16.95"
     inkscape:cy="1138.7318"
     inkscape:window-width="1920"
     inkscape:window-height="1005"
     inkscape:window-x="0"
     inkscape:window-y="0"
     inkscape:window-maximized="1"
     inkscape:current-layer="svg4" />
  <path
     d="m 493.73147,278.12752 c -2.80594,-19.74552 -9.64485,-38.47086 -20.33328,-55.65004 -9.32103,-14.99281 -21.2814,-28.32714 -35.55728,-39.66044 l 0.0384,-0.0356 L 287.94644,67.624408 a 4.2763079,4.2763079 0 0 0 -0.33788,-0.268614 c -4.98481,-3.818634 -11.73387,-5.919818 -18.99676,-5.919818 -7.27225,0 -14.28525,2.105864 -19.7371,5.931985 -5.86179,4.094736 -9.21245,9.527865 -9.44643,15.311036 -0.21433,5.395691 2.3595,10.587348 7.26663,14.634351 9.64954,7.613872 19.27755,15.393402 28.91866,23.182292 9.35659,7.56239 18.9977,15.35034 28.59202,22.93239 l -183.64351,-0.12448 c -21.001551,0 -35.301772,9.86199 -38.24343,26.3729 -1.292532,7.23201 0.988352,15.18375 6.087351,21.27391 5.409731,6.45611 13.264139,10.01736 22.115319,10.01736 l 13.99978,0.009 c 19.34026,0 38.76568,-0.0477 58.1649,-0.0945 l 18.49978,-0.0431 -166.672116,123.30816 -0.661709,0.48389 c -9.309791,7.1356 -15.40463,17.13986 -16.719625,27.44549 -0.996775,7.80761 0.824563,14.94227 5.26934,20.64027 5.297418,6.79305 13.568316,10.52932 23.290857,10.52932 9.551263,0 19.297202,-3.61927 27.454851,-10.20923 l 90.005562,-73.65844 c -0.38467,3.59682 -0.8517,8.87364 -0.79835,12.70351 0.10108,6.06395 2.04783,18.23116 5.12988,28.10907 6.36814,20.30053 17.09494,38.87425 31.88091,55.18581 15.38498,16.97045 34.12249,30.42646 55.68841,39.98521 22.79949,10.08381 47.30894,15.20246 72.84979,15.20246 h 0.23679 c 25.62229,-0.0618 50.20942,-5.26185 73.08285,-15.46078 21.60148,-9.672 40.33057,-23.18229 55.65751,-40.14994 14.76726,-16.39485 25.47909,-34.99946 31.83505,-55.28314 a 141.44293,141.44293 0 0 0 6.00499,-30.88882 c 0.78526,-10.13622 0.44738,-20.45028 -0.98929,-30.65482 z m -163.9607,97.29934 c -56.28834,0 -101.93412,-40.83224 -101.93412,-91.20451 0,-50.36665 45.64671,-91.19888 101.93412,-91.19888 56.28928,0 101.93037,40.83223 101.93037,91.19888 0.002,50.37227 -45.64109,91.20451 -101.93037,91.20451 z m 58.78356,-99.21896 c 0.83018,15.034 -5.17481,28.99354 -15.72004,39.32725 -10.72681,10.52745 -26.03316,17.13986 -43.14963,17.13986 -17.10897,0 -32.41814,-6.61241 -43.14868,-17.13986 -10.54055,-10.33371 -16.53338,-24.29138 -15.70788,-39.31508 0.80865,-14.60346 7.93209,-27.49416 18.6617,-36.62144 10.55085,-8.97473 24.71817,-14.44997 40.19393,-14.44997 15.47763,0 29.6412,5.47711 40.19299,14.44997 10.73522,9.12728 17.86053,22.00862 18.67761,36.60927 z"
     id="path2"
     style="fill:#383838;stroke-width:0.93594;fill-opacity:1" />
</svg>
