<?xml version="1.0" encoding="UTF-8" standalone="no"?>
<svg
   width="2500"
   height="2034"
   viewBox="0.499 48.118 511.002 415.763"
   version="1.1"
   id="svg4"
   sodipodi:docname="blender.svg"
   inkscape:version="1.1 (c4e8f9ed74, 2021-05-24)"
   xmlns:inkscape="http://www.inkscape.org/namespaces/inkscape"
   xmlns:sodipodi="http://sodipodi.sourceforge.net/DTD/sodipodi-0.dtd"
   xmlns="http://www.w3.org/2000/svg"
   xmlns:svg="http://www.w3.org/2000/svg">
  <defs
     id="defs8" />
  <sodipodi:namedview
     id="namedview6"
     pagecolor="#ffffff"
     bordercolor="#666666"
     borderopacity="1.0"
     inkscape:pageshadow="2"
     inkscape:pageopacity="0.0"
     inkscape:pagecheckerboard="0"
     showgrid="false"
     inkscape:zoom="0.32448378"
     inkscape:cx="16.95"
     inkscape:cy="1138.7318"
     inkscape:window-width="1920"
     inkscape:window-height="1005"
     inkscape:window-x="0"
     inkscape:window-y="0"
     inkscape:window-maximized="1"
     inkscape:current-layer="svg4" />
  <path
     d="m 483.11651,277.13952 c -2.68065,-18.86387 -9.2142,-36.7531 -19.42538,-53.16521 -8.90483,-14.32336 -20.33116,-27.0623 -33.96961,-37.88956 l 0.0367,-0.034 -143.2382,-110.015143 a 4.0853661,4.0853661 0 0 0 -0.3228,-0.25662 c -4.76223,-3.648128 -11.20994,-5.655492 -18.14853,-5.655492 -6.94754,0 -13.6474,2.011835 -18.85582,5.667115 -5.60005,3.911902 -8.8011,9.102436 -9.02464,14.627382 -0.20476,5.154767 2.25415,10.114608 6.94217,13.980908 9.21868,7.27391 18.41679,14.70607 27.62741,22.14718 8.93881,7.22472 18.14943,14.66493 27.31536,21.90843 l -175.44363,-0.11892 c -20.06381,0 -33.72551,9.42164 -36.53582,25.19532 -1.234819,6.9091 0.944221,14.50578 5.815544,20.32401 5.168176,6.16784 12.671886,9.57007 21.127846,9.57007 l 13.37467,0.009 c 18.4767,0 37.03476,-0.0456 55.56778,-0.0903 l 17.67374,-0.0412 -159.230021,117.80231 -0.632163,0.46229 c -8.894099,6.81699 -14.716797,16.37454 -15.973076,26.22002 -0.952268,7.45899 0.787746,14.27508 5.034058,19.71866 5.060883,6.48973 12.962476,10.05917 22.250895,10.05917 9.124789,0 18.435561,-3.45767 26.228962,-9.75338 l 85.986715,-70.36951 c -0.36749,3.43622 -0.81367,8.47743 -0.7627,12.13629 0.0966,5.79319 1.95639,17.41712 4.90082,26.85397 6.0838,19.39409 16.33164,37.13847 30.4574,52.7217 14.69802,16.2127 32.59888,29.06789 53.20186,38.19983 21.78147,9.63355 45.19654,14.52365 69.59697,14.52365 h 0.22621 c 24.47823,-0.059 47.96752,-5.0269 69.81962,-14.77044 20.63695,-9.24013 38.52977,-22.14717 53.17235,-38.3572 14.10788,-15.6628 24.34142,-33.4367 30.41358,-52.81469 a 135.12735,135.12735 0 0 0 5.73686,-29.5096 c 0.75019,-9.68362 0.4274,-19.53715 -0.94512,-29.28605 z m -156.63968,92.95481 c -53.775,0 -97.38265,-39.00903 -97.38265,-87.13212 0,-48.11773 43.60854,-87.12676 97.38265,-87.12676 53.77591,0 97.37907,39.00903 97.37907,87.12676 0.002,48.12309 -43.60316,87.13212 -97.37907,87.13212 z m 56.15881,-94.78872 c 0.79312,14.36271 -4.94375,27.69895 -15.01812,37.57124 -10.24785,10.05739 -24.87075,16.37455 -41.22295,16.37455 -16.34504,0 -30.97064,-6.31716 -41.22205,-16.37455 -10.0699,-9.87229 -15.79514,-23.20674 -15.0065,-37.55961 0.77254,-13.9514 7.57791,-26.26652 17.82843,-34.98626 10.07975,-8.574 23.61448,-13.80476 38.39923,-13.80476 14.78654,0 28.31769,5.23255 38.39833,13.80476 10.25588,8.71974 17.06304,21.02591 17.84363,34.97463 z"
     id="path2"
     style="fill:#383838;fill-opacity:1;stroke-width:0.894149" />
</svg>
